<?xml version="1.0" encoding="UTF-8"?>
<svg xmlns="http://www.w3.org/2000/svg" viewBox="0 0 708 423">
  <defs>
    <style>
      .cls-1 {
        mix-blend-mode: multiply;
        opacity: .21;
      }

      .cls-1, .cls-2 {
        fill: #556284;
      }

      .cls-3 {
        fill: #e6c09d;
        opacity: .84;
      }

      .cls-4 {
        fill: #fff;
      }

      .cls-5 {
        fill: #ecceaa;
        opacity: .87;
      }

      .cls-6 {
        isolation: isolate;
      }
    </style>
  </defs>
  <g class="cls-6">
    <g id="BALANCE">
      <g>
        <g id="BG_BRONZE" data-name="BG BRONZE">
          <rect class="cls-1" x="36" y="33.5" width="640" height="360" rx="24.81" ry="24.81"/>
          <path class="cls-4" d="M31.95,364.69l-.24-244.67-.07-61.17c.01-2.54-.09-5.1.21-7.68.26-2.58,1.07-5.07,2.12-7.43,1.05-2.36,2.53-4.53,4.28-6.43,1.75-1.9,3.76-3.59,6.02-4.85,2.25-1.27,4.68-2.25,7.21-2.79,2.53-.53,5.16-.62,7.69-.58l15.29-.02,122.34.04,244.67.19h122.34s61.17-.05,61.17-.05h15.29c2.55,0,5.09-.05,7.65.02,2.58.02,5.13.57,7.56,1.39,2.44.82,4.73,2.07,6.78,3.63,2.04,1.56,3.91,3.38,5.37,5.51,1.47,2.11,2.66,4.42,3.45,6.88.76,2.47,1.14,5.03,1.19,7.61l.18,244.67v61.17c0,2.54.09,5.09-.21,7.69-.27,2.59-1.08,5.09-2.14,7.45-1.06,2.37-2.54,4.55-4.3,6.45-1.76,1.9-3.77,3.6-6.05,4.86-2.26,1.27-4.69,2.25-7.24,2.79-2.54.53-5.18.61-7.71.58h-15.29s-122.34.02-122.34.02l-244.67-.18-122.34-.14-61.17-.06-15.29-.02c-2.55-.02-5.1.03-7.65-.04-2.56-.02-5.1-.57-7.51-1.4-2.42-.82-4.7-2.07-6.72-3.62-2.03-1.55-3.87-3.36-5.32-5.48-1.46-2.1-2.63-4.39-3.41-6.83-.74-2.45-1.12-4.99-1.17-7.54ZM32.05,364.69c.05,2.55.43,5.08,1.18,7.51.78,2.42,1.96,4.7,3.41,6.79,1.44,2.1,3.28,3.9,5.3,5.43,2.02,1.54,4.28,2.77,6.69,3.58,2.4.81,4.92,1.36,7.46,1.37,2.54.07,5.1.02,7.64.03l15.29-.02,61.17-.06,122.34-.14,244.67-.18,122.34.02h15.29c2.57.04,5.05-.04,7.51-.55,2.45-.52,4.79-1.47,6.97-2.69,2.19-1.21,4.13-2.84,5.82-4.67,1.7-1.83,3.13-3.93,4.15-6.21,1.02-2.27,1.8-4.68,2.06-7.18.29-2.47.2-5.03.21-7.58v-61.17s.19-244.67.19-244.67c-.04-2.52-.42-5.03-1.15-7.45-.77-2.4-1.93-4.67-3.37-6.73-1.42-2.08-3.25-3.87-5.25-5.4-2-1.53-4.24-2.76-6.63-3.57-2.38-.81-4.88-1.36-7.41-1.37-2.53-.07-5.09-.02-7.64-.04h-15.29s-61.17-.05-61.17-.05h-122.34s-244.67.18-244.67.18l-122.34.04-15.29-.02c-2.57-.04-5.06.04-7.52.55-2.46.52-4.81,1.47-6.99,2.69-2.2,1.21-4.15,2.85-5.85,4.68-1.7,1.84-3.14,3.94-4.17,6.23-1.02,2.28-1.82,4.7-2.07,7.2-.29,2.48-.2,5.04-.22,7.59l-.07,61.17-.24,244.67Z"/>
        </g>
        <g id="VIKASA">
          <g>
            <path class="cls-2" d="M167.78,138.15c-1.23-.84-2.22-1.85-3.07-2.93-.38.09-.49.34-.62.55-1.48,2.53-3.81,3.96-6.57,4.41-3.85.63-8.22-1.2-9.62-5.53-.87-2.71-.72-5.23.99-7.58,1.74-2.38,4.17-2.53,6.63-1.7.58.2.86.57.38,1.22-.33.45-.54,1-.75,1.52-.3.71.15,1.89.87,2.4,1.74,1.22,4.06.49,4.69-1.56.89-2.89.17-5.48-1.91-7.59-2.17-2.21-2.54-2.3-6.56-3.07,4.7-3.59,7.39-8.25,7.41-14.04.02-5.81-2.65-10.48-7.47-14.11.77-.14,1.31-.23,1.85-.33,4-.67,7.2-4.58,7.04-8.61-.08-1.91-.9-3.24-2.31-3.72-1.08-.37-2.47-.01-3.11.81-.77.99-.76,1.87.04,3.23.64,1.09.52,1.38-.73,1.76-2.9.87-5.6-.45-6.86-3.21-1.95-4.3.39-10.06,5.22-11.52,3.91-1.18,8.65.74,10.6,3.82.5.8.8.81,1.41.11,1.89-2.18,4.22-3.65,7.08-4.08,2.57-.39,4.96.3,7.37,1.72-1.53.5-2.58,1.3-3.31,2.5-.16.26-.44.54-.21.84.23.29.57.11.87.01,5.03-1.71,10.15-1.7,15.26-.52,2.91.67,5.59,1.99,8.19,3.45.09.05.16.14.31.28-1.16.36-2.3.26-3.39.51-4.45,1.04-8.15,3.33-11.27,6.63-2.29,2.42-3.92,5.26-5.37,8.23-1.4,2.87-3.24,5.46-5.4,7.82-.38.42-.62.49-1.09.07-2.74-2.39-5.65-4.56-8.91-6.21-1.16-.59-2.37-1.08-3.56-1.62-.17-.08-.33-.08-.52.21,2.57,3.53,4.14,7.44,4.12,11.98-.02,4.5-1.59,8.38-4.12,12.02,5.15-1.73,9.47-4.73,13.52-8.25,1.28,1.15,2.25,2.47,3.22,3.79,1.8,2.46,2.99,5.27,4.51,7.89,2.47,4.29,5.87,7.68,10.36,9.9,2.34,1.16,4.82,1.8,7.42,1.97.11,0,.21.05.46.11-.65.68-1.44.94-2.13,1.3-3.1,1.59-6.36,2.73-9.84,3.1-3.96.43-7.87.17-11.67-1.13-.3-.1-.68-.39-.93,0-.21.32.07.65.26.93.6.88,1.29,1.66,2.36,1.99.24.07.5.14.65.37-2.05,1.95-7.92,2.82-11.77-.14Z"/>
            <path class="cls-2" d="M115.34,69.01c2.22.93,3.92,2.45,5.46,4.24.87-.93,1.4-1.99,2.32-2.73,2.47-1.96,5.23-2.91,8.33-2.16,3.22.78,5.64,2.96,6.38,6.64.48,2.35.08,4.4-1.25,6.28-1.71,2.41-4.31,2.78-6.79,1.69-.61-.27-.65-.64-.3-1.14.16-.23.33-.47.45-.72.72-1.56.34-2.8-1.08-3.53-1.32-.68-3.26-.1-3.87,1.31-.95,2.15-.81,4.36.31,6.4,1.59,2.88,4.08,4.5,7.41,4.72.08,0,.15.06.39.17-4.5,3.65-7.28,8.15-7.28,14.04,0,5.87,2.72,10.37,7.33,14.07-.68.13-1.18.23-1.69.32-3.48.63-6.33,3.4-6.94,6.87-.22,1.25-.22,2.55.29,3.78.63,1.52,2.34,2.19,3.79,1.65,1.88-.7,2.1-2.4,1.13-3.96-.66-1.06-.56-1.43.68-1.75,3.58-.92,6.15.56,7.25,4.19,1.03,3.4.14,6.45-2.5,8.79-2.44,2.17-5.37,2.63-8.51,1.68-2.15-.65-3.86-1.86-5.11-3.73-.67-1-.69-.99-1.48-.12-2.35,2.6-5.18,4.24-8.79,4.09-1.94-.08-3.8-.54-5.61-1.76,1.84-.67,3.19-1.71,3.84-3.73-8.82,3.09-17,1.94-24.77-2.63v-.26c.93-.14,1.87-.26,2.8-.41,2.65-.44,5.04-1.52,7.26-2.97,3.81-2.5,6.72-5.83,8.73-9.9,1.43-2.89,3-5.67,5.02-8.18.59-.73,1.16-1.46,1.99-2.12,4.05,3.45,8.33,6.53,13.53,8.26-5.56-8.06-5.65-16.1-.11-24.23-5.15,1.68-9.38,4.72-13.39,8.18-.98-.71-1.61-1.66-2.32-2.53-2.07-2.51-3.48-5.42-4.98-8.29-2.08-3.98-5-7.23-8.81-9.61-2.67-1.67-5.55-2.84-8.76-2.97-.08,0-.17-.02-.25-.04-.24-.06-.49-.12-.73-.18-.02-.28.2-.35.36-.44,3.24-1.81,6.61-3.29,10.32-3.79,4.13-.56,8.25-.52,12.28.8.5.16,1.17.69,1.55.15.36-.5-.37-.92-.65-1.35-.65-.98-1.66-1.5-2.94-1.98,3.19-1.81,6.3-2.37,9.7-1.08Z"/>
            <path class="cls-2" d="M133.35,101.21c.98-3.26,3.19-5.19,6.25-6.31,3.77-1.38,8.51.14,10.85,3.24,3.41,4.52,2.59,10.78-1.91,14.06-5.61,4.09-13.24,1.35-15.18-4.85-.64-2.05-.69-4.05-.01-6.14Z"/>
            <path class="cls-2" d="M123.87,170.1c-.65-.57-1.15-1.24-1.89-1.59-.35.38-.25.76-.25,1.12,0,2.25,0,4.49,0,6.74,0,1.16-.31,1.45-1.47,1.45q-2.04,0-2.04-2.04c0-5.32,0-10.63,0-15.95,0-1.89.05-1.92,1.98-1.94.59,0,1.05.14,1.37.66.18.29.16.6.16.91,0,1.9,0,3.81,0,5.71,0,.31,0,.61,0,1.05,1.02-.41,1.64-1.12,2.33-1.7,2.33-1.94,4.62-3.94,6.95-5.87.52-.43,1.15-.74,1.86-.74.27,0,.61-.09.74.26.12.33-.13.51-.35.7-1.69,1.43-3.37,2.86-5.05,4.29-.99.84-1.98,1.69-2.99,2.51-.59.48-.57.94-.05,1.42,1.8,1.65,3.61,3.29,5.41,4.93,1.78,1.62,3.56,3.25,5.33,4.87.2.18.47.34.41.75-.55.34-1.18.09-1.78.18-1.61.25-2.77-.45-3.91-1.56-2.17-2.12-4.48-4.09-6.78-6.16Z"/>
            <path class="cls-2" d="M173.03,164.8c2.12,1.38,4.47,2.23,6.44,3.73,1.17.89,2.14,1.89,2.39,3.46.35,2.25-.98,4.73-3.12,5.6-2.43.99-4.9,1.08-7.38.19-1.49-.54-2.52-1.6-3.21-3-.21-.42-.26-.88.03-1.3.26-.37.66-.4,1.07-.38.5.02.63.42.8.78,1.2,2.39,3.83,3.55,6.37,2.81,1.13-.33,2.03-.94,2.35-2.12.36-1.31-.3-2.31-1.22-3.15-.87-.8-1.92-1.31-2.94-1.86-1.47-.79-2.94-1.57-4.33-2.52-2.92-1.98-2.97-6.12-.47-8.13.29-.24.59-.44.93-.58,2.63-1.15,5.27-1.21,7.87.08,1.26.63,1.93,1.81,2.45,3.05.23.55-.11,1.02-.62,1.24-.62.27-1.06-.06-1.3-.61-.39-.91-.98-1.67-1.79-2.22-1.77-1.2-4.2-1.34-5.8.23-.99.97-1.04,2.41-.07,3.41.45.46.99.84,1.55,1.29Z"/>
            <path class="cls-2" d="M83.97,171.92c-1.74-3.63-3.46-7.21-5.17-10.79-.32-.66-.65-1.32-.94-2-.34-.8-.08-1.22.77-1.22.62,0,1.25-.11,1.86.09.87.28,1.13,1.09,1.46,1.78,2.02,4.25,4,8.51,6,12.77.23.48.48.96.7,1.45.59,1.29.31,2.49-.31,3.66-.17.33-.4.63-.84.64-.45,0-.64-.32-.8-.66-.91-1.89-1.81-3.78-2.74-5.73Z"/>
            <path class="cls-2" d="M151.06,162.16c-.86-1.42-.55-2.72.2-3.99.19-.32.41-.63.85-.61.44.02.62.34.78.69,1.87,4.07,3.74,8.13,5.6,12.2.97,2.11,1.94,4.22,2.9,6.33.34.74.19.98-.62,1.03-.03,0-.06,0-.09,0-2.42.1-2.42.06-3.42-2.16-1.67-3.69-3.39-7.36-5.1-11.03-.37-.8-.73-1.6-1.13-2.46Z"/>
            <path class="cls-2" d="M204.98,170.77c.91,1.99,1.78,3.93,2.68,5.86.38.83.19,1.1-.7,1.2-1.52.15-2.56-.18-3.26-1.79-2.08-4.81-4.32-9.56-6.55-14.3-.66-1.39-.23-2.54.47-3.67.47-.76,1.08-.7,1.48.1.59,1.19,1.14,2.41,1.7,3.62,1.39,2.98,2.78,5.95,4.19,8.99Z"/>
            <path class="cls-2" d="M104.57,167c0-2.53,0-4.97,0-7.42,0-.61-.02-1.33.63-1.55.77-.26,1.63-.3,2.4.07.37.18.49.56.49,1.01-.02,5.86,0,11.71-.02,17.57,0,.89-.3,1.15-1.19,1.15q-2.31-.02-2.31-2.38c0-2.79,0-5.57,0-8.44Z"/>
            <path class="cls-2" d="M147.9,165.4c.26-.73.57-1.36.95-1.97.12-.2.23-.41.51-.36.25.05.39.25.45.46.14.5.2,1.03-.01,1.5-1.78,3.91-3.58,7.82-5.38,11.72-.11.23-.26.44-.42.64-.35.42-.85.58-1.3.33-.46-.26-.26-.75-.08-1.14,1.41-3.03,2.81-6.06,4.25-9.08.33-.69.54-1.43,1.03-2.11Z"/>
            <path class="cls-2" d="M189.03,176.18c1.79-3.84,3.56-7.61,5.34-11.38.22-.46.47-.91.7-1.36.12-.24.27-.45.58-.39.3.06.43.3.46.55.06.51.11,1.02-.11,1.51-1.24,2.71-2.47,5.42-3.71,8.12-.47,1.03-.95,2.06-1.42,3.09-.08.18-.14.37-.23.55-.36.8-1.13,1.25-1.67.87-.64-.45-.14-1,.05-1.57Z"/>
            <path class="cls-2" d="M92.72,163.82c.73-1.67,1.42-3.29,2.13-4.89.09-.2.2-.43.37-.56.35-.25.72-.68,1.21-.36.54.35.28.87.09,1.3-1.82,4.12-3.65,8.23-5.51,12.33-.19.41-.27,1.19-.95.96-.61-.21-.58-.92-.51-1.49.09-.74.54-1.36.83-2.04.73-1.75,1.53-3.47,2.33-5.26Z"/>
          </g>
        </g>
        <g id="TIER">
          <rect class="cls-3" x="553.64" y="189.32" width="50.36" height="50.36" rx="25.18" ry="25.18"/>
          <rect class="cls-5" x="578.82" y="189.32" width="50.36" height="50.36" rx="25.18" ry="25.18"/>
          <g>
            <path class="cls-4" d="M395.52,203.84h4.67c4.47,0,6.47,1.85,6.47,4.38,0,3.04-2.89,4.47-5.6,4.82,3.03.15,6.27,1.65,6.27,4.85,0,2.98-2.84,4.86-5.53,4.86h-6.27v-18.91ZM400.39,212.9c2-.24,4.05-1.65,4.05-4.51,0-2.47-1.49-4.24-4.57-4.24h-2.21v8.75h2.73ZM401.65,222.44c2.29-.41,3.41-1.94,3.41-4.36,0-4.19-3.37-4.86-5.28-4.86h-2.12v9.22h3.99Z"/>
            <path class="cls-4" d="M425.2,216.77h-7.08c-1.11,3.19-1.79,5.36-1.95,5.98h-.49l6.65-18.91h.56l6.68,18.91h-2.27l-2.11-5.98ZM425.09,216.46l-3.43-9.76-3,8.52-.44,1.24h6.87Z"/>
            <path class="cls-4" d="M439.27,203.84h2.13v18.59h2.56c.89,0,4.37-.08,5.33-.13v.45h-10.03v-18.91Z"/>
            <path class="cls-4" d="M466.72,216.77h-7.08c-1.11,3.19-1.79,5.36-1.95,5.98h-.49l6.66-18.91h.56l6.68,18.91h-2.27l-2.11-5.98ZM466.61,216.46l-3.43-9.76-3,8.52-.44,1.24h6.87Z"/>
            <path class="cls-4" d="M480.56,207.26v6.2c0,3.4.13,8.9.15,9.29h-.45v-18.91h.57l11.67,15.53v-6.24c0-3.4-.12-8.64-.15-9.29h.45v18.91h-.56l-11.68-15.49Z"/>
            <path class="cls-4" d="M517.19,219.4c-1.09,1.89-3.51,3.73-6.24,3.73-4.19,0-8.17-4.28-8.17-9.83s3.75-9.83,8.32-9.83c1.09,0,3.27.26,5.2,1.05l-.67,1.96c-1.27-.89-4.24-2.63-4.85-2.7-4.08.27-5.83,3.36-5.83,8.32,0,6.33,3.41,10.24,7.17,10.24,2.35,0,3.81-1.5,4.65-3.16l.41.23Z"/>
            <path class="cls-4" d="M527.15,203.84h9.98v.45c-.96-.04-4.57-.13-5.33-.13h-2.51v8.75h1.75c.71,0,4.36-.04,5.33-.07v.45c-.97-.03-4.63-.07-5.33-.07h-1.75v9.22h2.6c.76,0,4.37-.09,5.33-.13v.45h-10.07v-18.91Z"/>
          </g>
        </g>
      </g>
    </g>
  </g>
</svg>